<?xml version="1.0" encoding="UTF-8" standalone="no"?>
<!DOCTYPE svg PUBLIC "-//W3C//DTD SVG 1.1//EN"
 "http://www.w3.org/Graphics/SVG/1.1/DTD/svg11.dtd">
<!-- Generated by graphviz version 2.36.0 (20140111.2315)
 -->
<!-- Title: paths Pages: 1 -->
<svg width="556pt" height="422pt"
 viewBox="0.00 0.00 556.00 422.00" xmlns="http://www.w3.org/2000/svg" xmlns:xlink="http://www.w3.org/1999/xlink">
<g id="graph0" class="graph" transform="scale(1 1) rotate(0) translate(4 418)">
<title>paths</title>
<polygon fill="white" stroke="none" points="-4,4 -4,-418 552,-418 552,4 -4,4"/>
<!-- BrBr.C=C -->
<g id="node1" class="node"><title>BrBr.C=C</title>
<image xlink:href="search/static/pics/BrBr.C=C.svg" width="85.5px" height="85.5px" preserveAspectRatio="xMinYMin meet" x="184.25" y="-399.75"/>
<text text-anchor="middle" x="227" y="-303.8" font-family="Times,serif" font-size="14.00">0.0 kcal/mol</text>
</g>
<!-- BrC=C.Br -->
<g id="node2" class="node"><title>BrC=C.Br</title>
<image xlink:href="search/static/pics/BrC=C.Br.svg" width="85.5px" height="85.5px" preserveAspectRatio="xMinYMin meet" x="14.25" y="-249.75"/>
<text text-anchor="middle" x="57" y="-153.8" font-family="Times,serif" font-size="14.00">0.0 kcal/mol</text>
</g>
<!-- BrBr.C=C&#45;&gt;BrC=C.Br -->
<g id="edge1" class="edge"><title>BrBr.C=C&#45;&gt;BrC=C.Br</title>
<path fill="none" stroke="black" d="M169.92,-306.306C154.501,-292.883 137.704,-278.26 121.892,-264.494"/>
<polygon fill="black" stroke="black" points="124.06,-261.741 114.219,-257.814 119.463,-267.02 124.06,-261.741"/>
</g>
<!-- BrCCBr -->
<g id="node3" class="node"><title>BrCCBr</title>
<image xlink:href="search/static/pics/BrCCBr.svg" width="85.5px" height="85.5px" preserveAspectRatio="xMinYMin meet" x="184.25" y="-99.75"/>
<text text-anchor="middle" x="227" y="-3.8" font-family="Times,serif" font-size="14.00">0.0 kcal/mol</text>
</g>
<!-- BrBr.C=C&#45;&gt;BrCCBr -->
<g id="edge9" class="edge"><title>BrBr.C=C&#45;&gt;BrCCBr</title>
<path fill="none" stroke="black" d="M178.626,-299.855C171.378,-288.631 165.002,-276.444 161,-264 145.488,-215.766 145.488,-198.234 161,-150 164.002,-140.667 168.339,-131.478 173.377,-122.732"/>
<polygon fill="black" stroke="black" points="176.397,-124.503 178.626,-114.145 170.424,-120.852 176.397,-124.503"/>
</g>
<!-- BrC[CH2+].[Br&#45;] -->
<g id="node4" class="node"><title>BrC[CH2+].[Br&#45;]</title>
<image xlink:href="search/static/pics/BrC[CH2+].[Br-].svg" width="85.5px" height="85.5px" preserveAspectRatio="xMinYMin meet" x="184.25" y="-249.75"/>
<text text-anchor="middle" x="227" y="-153.8" font-family="Times,serif" font-size="14.00">0.0 kcal/mol</text>
</g>
<!-- BrBr.C=C&#45;&gt;BrC[CH2+].[Br&#45;] -->
<g id="edge3" class="edge"><title>BrBr.C=C&#45;&gt;BrC[CH2+].[Br&#45;]</title>
<path fill="none" stroke="black" d="M227,-299.625C227,-291.379 227,-282.822 227,-274.398"/>
<polygon fill="black" stroke="black" points="230.5,-274.218 227,-264.218 223.5,-274.218 230.5,-274.218"/>
</g>
<!-- [CH2&#45;]C[Br+]Br -->
<g id="node5" class="node"><title>[CH2&#45;]C[Br+]Br</title>
<image xlink:href="search/static/pics/[CH2-]C[Br+]Br.svg" width="85.5px" height="85.5px" preserveAspectRatio="xMinYMin meet" x="316.25" y="-249.75"/>
<text text-anchor="middle" x="359" y="-153.8" font-family="Times,serif" font-size="14.00">0.0 kcal/mol</text>
</g>
<!-- BrBr.C=C&#45;&gt;[CH2&#45;]C[Br+]Br -->
<g id="edge5" class="edge"><title>BrBr.C=C&#45;&gt;[CH2&#45;]C[Br+]Br</title>
<path fill="none" stroke="black" d="M277.28,-299.625C285.363,-290.563 293.779,-281.126 302.006,-271.903"/>
<polygon fill="black" stroke="black" points="304.816,-274.011 308.86,-264.218 299.591,-269.351 304.816,-274.011"/>
</g>
<!-- [Br+]1CC1.[Br&#45;] -->
<g id="node6" class="node"><title>[Br+]1CC1.[Br&#45;]</title>
<image xlink:href="search/static/pics/[Br+]1CC1.[Br-].svg" width="85.5px" height="85.5px" preserveAspectRatio="xMinYMin meet" x="448.25" y="-249.75"/>
<text text-anchor="middle" x="491" y="-153.8" font-family="Times,serif" font-size="14.00">0.0 kcal/mol</text>
</g>
<!-- BrBr.C=C&#45;&gt;[Br+]1CC1.[Br&#45;] -->
<g id="edge7" class="edge"><title>BrBr.C=C&#45;&gt;[Br+]1CC1.[Br&#45;]</title>
<path fill="none" stroke="black" d="M284.152,-334.247C324.884,-317.615 380.143,-292.707 425,-264 425.091,-263.942 425.182,-263.883 425.273,-263.825"/>
<polygon fill="black" stroke="black" points="427.418,-266.599 433.737,-258.095 423.494,-260.803 427.418,-266.599"/>
</g>
<!-- BrC=C.Br&#45;&gt;BrCCBr -->
<g id="edge2" class="edge"><title>BrC=C.Br&#45;&gt;BrCCBr</title>
<path fill="none" stroke="black" d="M114.08,-156.306C129.499,-142.883 146.296,-128.26 162.108,-114.494"/>
<polygon fill="black" stroke="black" points="164.537,-117.02 169.781,-107.814 159.94,-111.741 164.537,-117.02"/>
</g>
<!-- BrC[CH2+].[Br&#45;]&#45;&gt;BrCCBr -->
<g id="edge4" class="edge"><title>BrC[CH2+].[Br&#45;]&#45;&gt;BrCCBr</title>
<path fill="none" stroke="black" d="M227,-149.625C227,-141.379 227,-132.822 227,-124.398"/>
<polygon fill="black" stroke="black" points="230.5,-124.218 227,-114.218 223.5,-124.218 230.5,-124.218"/>
</g>
<!-- [CH2&#45;]C[Br+]Br&#45;&gt;BrCCBr -->
<g id="edge6" class="edge"><title>[CH2&#45;]C[Br+]Br&#45;&gt;BrCCBr</title>
<path fill="none" stroke="black" d="M308.72,-149.625C300.637,-140.563 292.221,-131.126 283.994,-121.903"/>
<polygon fill="black" stroke="black" points="286.409,-119.351 277.14,-114.218 281.184,-124.011 286.409,-119.351"/>
</g>
<!-- [Br+]1CC1.[Br&#45;]&#45;&gt;BrCCBr -->
<g id="edge8" class="edge"><title>[Br+]1CC1.[Br&#45;]&#45;&gt;BrCCBr</title>
<path fill="none" stroke="black" d="M433.737,-155.905C430.832,-153.843 427.911,-151.863 425,-150 383.473,-123.424 333.029,-100.103 293.451,-83.5911"/>
<polygon fill="black" stroke="black" points="294.731,-80.3329 284.152,-79.7528 292.06,-86.8034 294.731,-80.3329"/>
</g>
</g>
</svg>
