<?xml version="1.0" encoding="UTF-8" standalone="no"?>
<!DOCTYPE svg PUBLIC "-//W3C//DTD SVG 1.1//EN"
 "http://www.w3.org/Graphics/SVG/1.1/DTD/svg11.dtd">
<!-- Generated by graphviz version 2.40.1 (20161225.0304)
 -->
<!-- Title: paths Pages: 1 -->
<svg width="556pt" height="422pt"
 viewBox="0.00 0.00 556.00 422.00" xmlns="http://www.w3.org/2000/svg" xmlns:xlink="http://www.w3.org/1999/xlink">
<g id="graph0" class="graph" transform="scale(1 1) rotate(0) translate(4 418)">
<title>paths</title>
<polygon fill="#ffffff" stroke="transparent" points="-4,4 -4,-418 552,-418 552,4 -4,4"/>
<!-- BrBr.C=C -->
<g id="node1" class="node">
<title>BrBr.C=C</title>
<image xlink:href="./pics/BrBr.C=C.svg" width="114px" height="114px" preserveAspectRatio="xMinYMin meet" x="170" y="-414"/>
<text text-anchor="middle" x="227" y="-303.8" font-family="Times,serif" font-size="14.00" fill="#000000">0.0 kcal/mol</text>
</g>
<!-- [CH2&#45;]C[Br+]Br -->
<g id="node2" class="node">
<title>[CH2&#45;]C[Br+]Br</title>
<image xlink:href="pics/[CH2-]C[Br+]Br.svg" width="114px" height="114px" preserveAspectRatio="xMinYMin meet" x="0" y="-264"/>
<text text-anchor="middle" x="57" y="-153.8" font-family="Times,serif" font-size="14.00" fill="#000000">0.0 kcal/mol</text>
</g>
<!-- BrBr.C=C&#45;&gt;[CH2&#45;]C[Br+]Br -->
<g id="edge1" class="edge">
<title>BrBr.C=C&#45;&gt;[CH2&#45;]C[Br+]Br</title>
<path fill="none" stroke="#000000" d="M169.9195,-306.6349C154.5012,-293.0305 137.7042,-278.2096 121.892,-264.2577"/>
<polygon fill="#000000" stroke="#000000" points="124.0333,-261.4793 114.2192,-257.4875 119.4019,-266.7282 124.0333,-261.4793"/>
</g>
<!-- BrCCBr -->
<g id="node3" class="node">
<title>BrCCBr</title>
<image xlink:href="pics/BrCCBr.svg" width="114px" height="114px" preserveAspectRatio="xMinYMin meet" x="170" y="-114"/>
<text text-anchor="middle" x="227" y="-3.8" font-family="Times,serif" font-size="14.00" fill="#000000">0.0 kcal/mol</text>
</g>
<!-- BrBr.C=C&#45;&gt;BrCCBr -->
<g id="edge5" class="edge">
<title>BrBr.C=C&#45;&gt;BrCCBr</title>
<path fill="none" stroke="#000000" d="M178.457,-299.9306C171.2779,-288.6616 164.9687,-276.4497 161,-264 145.6115,-215.7268 145.6115,-198.2732 161,-150 163.9765,-140.6627 168.2696,-131.4592 173.2588,-122.6869"/>
<polygon fill="#000000" stroke="#000000" points="176.2887,-124.44 178.457,-114.0694 170.2948,-120.8243 176.2887,-124.44"/>
</g>
<!-- BrC[CH2+].[Br&#45;] -->
<g id="node4" class="node">
<title>BrC[CH2+].[Br&#45;]</title>
<image xlink:href="pics/BrC[CH2+].[Br-].svg" width="114px" height="114px" preserveAspectRatio="xMinYMin meet" x="170" y="-264"/>
<text text-anchor="middle" x="227" y="-153.8" font-family="Times,serif" font-size="14.00" fill="#000000">0.0 kcal/mol</text>
</g>
<!-- BrBr.C=C&#45;&gt;BrC[CH2+].[Br&#45;] -->
<g id="edge3" class="edge">
<title>BrBr.C=C&#45;&gt;BrC[CH2+].[Br&#45;]</title>
<path fill="none" stroke="#000000" d="M227,-299.8635C227,-291.6231 227,-283.0771 227,-274.6558"/>
<polygon fill="#000000" stroke="#000000" points="230.5001,-274.4745 227,-264.4745 223.5001,-274.4745 230.5001,-274.4745"/>
</g>
<!-- [Br+]1CC1.[Br&#45;] -->
<g id="node5" class="node">
<title>[Br+]1CC1.[Br&#45;]</title>
<image xlink:href="pics/[Br+]1CC1.[Br-].svg" width="114px" height="114px" preserveAspectRatio="xMinYMin meet" x="302" y="-264"/>
<text text-anchor="middle" x="359" y="-153.8" font-family="Times,serif" font-size="14.00" fill="#000000">0.0 kcal/mol</text>
</g>
<!-- BrBr.C=C&#45;&gt;[Br+]1CC1.[Br&#45;] -->
<g id="edge6" class="edge">
<title>BrBr.C=C&#45;&gt;[Br+]1CC1.[Br&#45;]</title>
<path fill="none" stroke="#000000" d="M277.2801,-299.8635C285.2489,-290.8081 293.5423,-281.3837 301.6581,-272.1613"/>
<polygon fill="#000000" stroke="#000000" points="304.4436,-274.2939 308.4224,-264.4745 299.1886,-269.6695 304.4436,-274.2939"/>
</g>
<!-- BrC=C.Br -->
<g id="node6" class="node">
<title>BrC=C.Br</title>
<image xlink:href="pics/BrC=C.Br.svg" width="114px" height="114px" preserveAspectRatio="xMinYMin meet" x="434" y="-264"/>
<text text-anchor="middle" x="491" y="-153.8" font-family="Times,serif" font-size="14.00" fill="#000000">0.0 kcal/mol</text>
</g>
<!-- BrBr.C=C&#45;&gt;BrC=C.Br -->
<g id="edge8" class="edge">
<title>BrBr.C=C&#45;&gt;BrC=C.Br</title>
<path fill="none" stroke="#000000" d="M284.2124,-335.0307C324.9736,-318.2271 380.2428,-293.0514 425,-264 425.0913,-263.9408 425.1826,-263.8814 425.2739,-263.8219"/>
<polygon fill="#000000" stroke="#000000" points="427.501,-266.5383 433.7613,-257.9908 423.5371,-260.7687 427.501,-266.5383"/>
</g>
<!-- [CH2&#45;]C[Br+]Br&#45;&gt;BrCCBr -->
<g id="edge2" class="edge">
<title>[CH2&#45;]C[Br+]Br&#45;&gt;BrCCBr</title>
<path fill="none" stroke="#000000" d="M114.0805,-156.6349C129.4988,-143.0305 146.2958,-128.2096 162.108,-114.2577"/>
<polygon fill="#000000" stroke="#000000" points="164.5981,-116.7282 169.7808,-107.4875 159.9667,-111.4793 164.5981,-116.7282"/>
</g>
<!-- BrC[CH2+].[Br&#45;]&#45;&gt;BrCCBr -->
<g id="edge4" class="edge">
<title>BrC[CH2+].[Br&#45;]&#45;&gt;BrCCBr</title>
<path fill="none" stroke="#000000" d="M227,-149.8635C227,-141.6231 227,-133.0771 227,-124.6558"/>
<polygon fill="#000000" stroke="#000000" points="230.5001,-124.4745 227,-114.4745 223.5001,-124.4745 230.5001,-124.4745"/>
</g>
<!-- [Br+]1CC1.[Br&#45;]&#45;&gt;BrCCBr -->
<g id="edge7" class="edge">
<title>[Br+]1CC1.[Br&#45;]&#45;&gt;BrCCBr</title>
<path fill="none" stroke="#000000" d="M308.7199,-149.8635C300.7511,-140.8081 292.4577,-131.3837 284.3419,-122.1613"/>
<polygon fill="#000000" stroke="#000000" points="286.8114,-119.6695 277.5776,-114.4745 281.5564,-124.2939 286.8114,-119.6695"/>
</g>
<!-- BrC=C.Br&#45;&gt;BrCCBr -->
<g id="edge9" class="edge">
<title>BrC=C.Br&#45;&gt;BrCCBr</title>
<path fill="none" stroke="#000000" d="M433.7613,-156.0092C430.8496,-153.9112 427.9209,-151.8959 425,-150 383.5646,-123.1047 333.1197,-99.5312 293.5176,-82.8473"/>
<polygon fill="#000000" stroke="#000000" points="294.7893,-79.5855 284.2124,-78.9693 292.0965,-86.0469 294.7893,-79.5855"/>
</g>
</g>
</svg>
